<?xml version="1.0" encoding="UTF-8" standalone="no"?>
<svg
   xmlns:dc="http://purl.org/dc/elements/1.1/"
   xmlns:cc="http://creativecommons.org/ns#"
   xmlns:rdf="http://www.w3.org/1999/02/22-rdf-syntax-ns#"
   xmlns:svg="http://www.w3.org/2000/svg"
   xmlns="http://www.w3.org/2000/svg"
   xmlns:sodipodi="http://sodipodi.sourceforge.net/DTD/sodipodi-0.dtd"
   xmlns:inkscape="http://www.inkscape.org/namespaces/inkscape"
   enable-background="new 0 0 64 64"
   height="64"
   id="Layer_1"
   version="1.1"
   viewBox="0 0 200 64"
   width="200"
   xml:space="preserve"
   inkscape:version="0.91 r13725"
   sodipodi:docname="rltm.js-logo.svg"
   inkscape:export-filename="/Users/ian/Development/rltm/assets/rltm.js-logo.png"
   inkscape:export-xdpi="90"
   inkscape:export-ydpi="90"><metadata
     id="metadata3459"><rdf:RDF><cc:Work
         rdf:about=""><dc:format>image/svg+xml</dc:format><dc:type
           rdf:resource="http://purl.org/dc/dcmitype/StillImage" /><dc:title></dc:title></cc:Work></rdf:RDF></metadata><defs
     id="defs3457" /><sodipodi:namedview
     pagecolor="#ffffff"
     bordercolor="#666666"
     borderopacity="1"
     objecttolerance="10"
     gridtolerance="10"
     guidetolerance="10"
     inkscape:pageopacity="0"
     inkscape:pageshadow="2"
     inkscape:window-width="1280"
     inkscape:window-height="751"
     id="namedview3455"
     showgrid="false"
     inkscape:zoom="4.2890625"
     inkscape:cx="84.950254"
     inkscape:cy="40.985598"
     inkscape:window-x="0"
     inkscape:window-y="1"
     inkscape:window-maximized="1"
     inkscape:current-layer="Layer_1" /><path
     id="path3447"
     d="m 33.101969,30.791291 c -1.095,1.896594 -0.444077,4.323156 1.451657,5.417655 1.331946,0.769 2.915368,0.662434 4.124713,-0.116212 l 0.0046,0.01416 12.801024,-7.692024 -14.904181,0.394802 0.0043,0.01637 c -1.385719,-0.01371 -2.740055,0.680074 -3.482055,1.965256 z"
     style="fill:#ffffff;fill-opacity:1"
     inkscape:connector-curvature="0" /><path
     id="path3449"
     d="m 54.14378,13.214151 c -4.064,-3.5519998 -9.315,-5.8199998 -15.315,-6.1589998 l 0,6.0269998 c 5,0.318 7.946,1.906 10.904,4.384 l 4.411,-4.252 z"
     style="fill:#ffffff;fill-opacity:1"
     inkscape:connector-curvature="0" /><path
     id="path3451"
     d="m 56.97478,30.233151 6.02,0 c -0.404,-6 -2.751,-10.93 -6.395,-14.97 l -4.259,4.233 c 2.566,2.94 4.254,6.737 4.634,10.737 z"
     style="fill:#ffffff;fill-opacity:1"
     inkscape:connector-curvature="0" /><path
     id="path3453"
     d="m 57.00278,33.233151 c -0.637,10 -8.922,17.931 -19.042,17.931 -10.535,0 -19.421,-8.544 -19.421,-19.078 0,-10.028 8.289,-18.233 17.289,-19.003 l 0,-6.0269998 c -13,0.779 -23.289,11.7169998 -23.289,25.0559998 0,13.843 11.42,25.052 25.263,25.052 13.432,0 24.59,-10.931 25.231,-23.931 l -6.031,0 z"
     style="fill:#ffffff;fill-opacity:1"
     inkscape:connector-curvature="0" /><text
     xml:space="preserve"
     style="font-style:normal;font-variant:normal;font-weight:600;font-stretch:normal;font-size:40px;line-height:125%;font-family:'PingFang TC';-inkscape-font-specification:'PingFang TC, Semi-Bold';text-align:start;letter-spacing:0px;word-spacing:0px;writing-mode:lr-tb;text-anchor:start;fill:#ffffff;fill-opacity:1;stroke:#1f628e;stroke-width:0;stroke-linecap:round;stroke-linejoin:round;stroke-miterlimit:4;stroke-dasharray:none;stroke-opacity:1;"
     x="72.743172"
     y="42.709652"
     id="text4323"
     sodipodi:linespacing="125%"><tspan
       sodipodi:role="line"
       id="tspan4325"
       x="72.743172"
       y="42.709652">rltm.js</tspan></text>
<text
     xml:space="preserve"
     style="font-style:normal;font-weight:normal;font-size:40px;line-height:125%;font-family:sans-serif;letter-spacing:0px;word-spacing:0px;fill:#000000;fill-opacity:1;stroke:none;stroke-width:1px;stroke-linecap:butt;stroke-linejoin:miter;stroke-opacity:1"
     x="39.868851"
     y="28.56102"
     id="text3366"
     sodipodi:linespacing="125%"><tspan
       sodipodi:role="line"
       id="tspan3368"
       x="39.868851"
       y="28.56102" /></text>
<path
     style="fill:#ffffff;stroke:none;stroke-width:1px;stroke-linecap:butt;stroke-linejoin:miter;stroke-opacity:1"
     d="M 32.64508,56.508326 C 22.830765,54.409249 15.369411,46.965623 13.128969,37.038582 c -0.519803,-2.303165 -0.503012,-7.581656 0.03192,-10.033513 0.423381,-1.940574 1.550021,-5.105699 2.055639,-5.775008 0.259028,-0.342886 0.534734,-0.157411 2.445414,1.645095 l 2.153472,2.031553 -0.589371,1.981785 c -1.926963,6.479503 -0.172774,13.352363 4.67587,18.319912 3.98396,4.081662 8.574317,6.008575 14.222222,5.970123 2.667236,-0.01816 4.942003,-0.453675 7.238953,-1.385934 l 1.177024,-0.477715 2.087092,1.938283 c 1.399707,1.299909 2.010307,2.016077 1.853944,2.17448 -0.39123,0.396338 -3.413012,1.835089 -4.896175,2.3312 -3.832222,1.28186 -9.040334,1.583513 -12.93989,0.749483 z"
     id="path3355"
     inkscape:connector-curvature="0" /><path
     style="fill:#ffffff;stroke:none;stroke-width:1px;stroke-linecap:butt;stroke-linejoin:miter;stroke-opacity:1"
     d="m 17.767852,22.915729 c -1.065535,-1.020808 -2.098456,-1.856015 -2.295379,-1.856015 -0.753952,0 2.168827,-4.321863 4.497835,-6.650871 2.274892,-2.274892 6.723501,-5.2398392 7.861858,-5.2398392 0.181341,0 1.392958,0.9660452 2.692483,2.1467682 l 2.362771,2.146767 -0.878912,0.271532 c -2.68861,0.830623 -5.106437,2.320164 -7.498676,4.61968 -1.67258,1.607751 -3.584613,4.198706 -4.206561,5.700224 -0.16771,0.404887 -0.370887,0.732021 -0.451505,0.726964 -0.08062,-0.0051 -1.018379,-0.844401 -2.083914,-1.86521 z"
     id="path3357"
     inkscape:connector-curvature="0" /></svg>